<svg width="512" height="512" viewBox="0 0 512 512" fill="none" xmlns="http://www.w3.org/2000/svg">
<circle cx="256" cy="256" r="256" fill="#0F1010"/>
<path d="M84 124L85.6955 147.575L215.423 277.311C224.124 287.015 229.462 299.268 230.643 312.248C231.824 325.228 228.784 338.243 221.976 349.358C215.169 360.473 204.956 369.094 192.857 373.94C180.757 378.786 167.417 379.598 154.819 376.256C142.221 372.914 131.038 365.596 122.931 355.39C114.825 345.183 110.229 332.633 109.826 319.606C109.423 306.578 113.234 293.768 120.694 283.08C128.153 272.392 138.863 264.396 151.23 260.282L166.293 275.343C156.659 276.264 147.626 280.439 140.683 287.181C133.739 293.922 129.299 302.828 128.094 312.43C126.888 322.033 128.99 331.759 134.052 340.008C139.115 348.256 146.836 354.534 155.943 357.807C165.051 361.08 175.002 361.154 184.157 358.015C193.311 354.876 201.124 348.713 206.307 340.54C211.491 332.367 213.735 322.673 212.672 313.053C211.608 303.434 207.3 294.464 200.456 287.621L110.35 197.515L112.047 221.095L139.35 248.397C124.499 255.037 112.172 266.269 104.184 280.44C96.1964 294.611 92.9697 310.973 94.9794 327.116C96.9891 343.259 104.129 358.33 115.347 370.11C126.566 381.89 141.271 389.757 157.296 392.553C173.322 395.348 189.821 392.924 204.366 385.637C218.91 378.351 230.73 366.587 238.087 352.078C245.443 337.568 247.946 321.081 245.228 305.042C242.509 289.003 234.713 274.261 222.987 262.986L84 124ZM168.318 290.682C172.04 290.403 175.779 290.895 179.302 292.127C182.825 293.36 186.055 295.306 188.791 297.845C191.527 300.384 193.709 303.46 195.202 306.881C196.694 310.301 197.464 313.993 197.464 317.726C197.422 324.89 194.547 331.747 189.465 336.799C184.384 341.85 177.511 344.685 170.346 344.685C163.181 344.685 156.308 341.85 151.226 336.799C146.145 331.747 143.27 324.89 143.228 317.726C143.227 310.884 145.813 304.295 150.466 299.28C155.12 294.264 161.496 291.193 168.318 290.682Z" fill="#00FFF2" stroke="#00FFF2" stroke-width="0.999987"/>
<path d="M427.967 124L288.98 262.977C277.254 274.252 269.458 288.995 266.739 305.033C264.021 321.072 266.524 337.56 273.881 352.069C281.237 366.578 293.057 378.342 307.602 385.628C322.146 392.915 338.645 395.339 354.671 392.544C370.696 389.749 385.401 381.882 396.619 370.102C407.838 358.321 414.978 343.251 416.988 327.108C418.998 310.965 415.771 294.603 407.784 280.432C399.796 266.261 387.469 255.028 372.619 248.389L399.921 221.086L401.617 197.506L311.51 287.612C304.667 294.456 300.358 303.426 299.295 313.045C298.231 322.664 300.476 332.359 305.659 340.532C310.843 348.705 318.655 354.868 327.81 358.007C336.965 361.145 346.916 361.072 356.023 357.799C365.131 354.526 372.852 348.248 377.914 339.999C382.976 331.751 385.078 322.024 383.873 312.422C382.668 302.819 378.228 293.914 371.284 287.172C364.341 280.431 355.308 276.255 345.674 275.334L360.736 260.273C373.104 264.388 383.813 272.384 391.273 283.072C398.732 293.76 402.544 306.57 402.141 319.597C401.738 332.625 397.141 345.175 389.035 355.381C380.929 365.588 369.746 372.906 357.148 376.248C344.55 379.59 331.209 378.778 319.11 373.931C307.011 369.085 296.798 360.464 289.99 349.349C283.182 338.235 280.143 325.22 281.324 312.24C282.505 299.259 287.842 287.007 296.544 277.303L426.271 147.566L427.967 124ZM339.594 290.7C343.315 290.421 347.053 290.913 350.575 292.145C354.097 293.377 357.327 295.323 360.063 297.86C362.799 300.397 364.981 303.472 366.474 306.891C367.967 310.311 368.739 314.002 368.74 317.733C368.698 324.898 365.822 331.755 360.741 336.806C355.66 341.857 348.787 344.693 341.622 344.693C334.457 344.693 327.583 341.857 322.502 336.806C317.421 331.755 314.546 324.898 314.503 317.733C314.506 310.893 317.093 304.307 321.746 299.294C326.399 294.281 332.773 291.212 339.594 290.7Z" fill="#00FFF2" stroke="#00FFF2" stroke-width="0.999987"/>
</svg>
